# xmcd CD database file
#
# Track frame offsets:
#	150
#	17779
#	40067
#	53875
#	77956
#	98788
#	118174
#	138634
#	161912
#	183801
#	204649
#	225084
#	240665
#	261863
#	279761
#
# Disc length: 4026 seconds
#
# Revision: 0
# Processed by: cddbd v1.5.2PL0 Copyright (c) Steve Scherf et al.
# Submitted via: CDex 1.70beta2
#
DISCID=c70fb80f
DTITLE=The Blue Band - Jeff's Songs
DYEAR=2003
DGENRE=Blues
TTITLE0=Ain't Gonna Be for Nothin'
TTITLE1=Back to Me
TTITLE2=Santa Brought the House Down
TTITLE3=The Last Goodbye
TTITLE4=She's Got the Mojo and the Say So
TTITLE5=Lost and Found
TTITLE6=Bottle in the Kitchen
TTITLE7=So Many Days
TTITLE8=What Love'll Make You Do
TTITLE9=Dance of Chivas
TTITLE10=Don't Sting, Bite or Bug Me
TTITLE11=Santa's Got a Lot on his Mind
TTITLE12=Some Kind Woman
TTITLE13=Isn't it Sweet
TTITLE14=Sarita
EXTD=YEAR: 2003
EXTT0=
EXTT1=
EXTT2=
EXTT3=
EXTT4=
EXTT5=
EXTT6=
EXTT7=
EXTT8=
EXTT9=
EXTT10=
EXTT11=
EXTT12=
EXTT13=
EXTT14=
PLAYORDER=
